<?xml version="1.0" encoding="UTF-8" standalone="no"?>
<!DOCTYPE svg PUBLIC "-//W3C//DTD SVG 1.1//EN"
 "http://www.w3.org/Graphics/SVG/1.1/DTD/svg11.dtd">
<!-- Generated by graphviz version 12.2.1 (0)
 -->
<!-- Title: HashTable Pages: 1 -->
<svg width="546pt" height="210pt"
 viewBox="0.00 0.00 545.75 209.75" xmlns="http://www.w3.org/2000/svg" xmlns:xlink="http://www.w3.org/1999/xlink">
<g id="graph0" class="graph" transform="scale(1 1) rotate(0) translate(4 205.75)">
<title>HashTable</title>
<polygon fill="white" stroke="none" points="-4,4 -4,-205.75 541.75,-205.75 541.75,4 -4,4"/>
<!-- diretorio -->
<g id="node1" class="node">
<title>diretorio</title>
<polygon fill="none" stroke="black" points="9,-119 9,-141.5 102,-141.5 102,-119 9,-119"/>
<text text-anchor="start" x="12" y="-125.2" font-family="Times,serif" font-size="14.00">Profundidade: 1</text>
<polygon fill="none" stroke="black" points="9,-96.5 9,-119 102,-119 102,-96.5 9,-96.5"/>
<text text-anchor="start" x="52.12" y="-102.7" font-family="Times,serif" font-size="14.00">0</text>
<polygon fill="none" stroke="black" points="9,-74 9,-96.5 102,-96.5 102,-74 9,-74"/>
<text text-anchor="start" x="52.12" y="-80.2" font-family="Times,serif" font-size="14.00">1</text>
<polygon fill="none" stroke="black" points="8,-73 8,-142.5 103,-142.5 103,-73 8,-73"/>
</g>
<!-- bucket0 -->
<g id="node2" class="node">
<title>bucket0</title>
<polygon fill="none" stroke="black" points="156,-174.25 156,-196.75 528.75,-196.75 528.75,-174.25 156,-174.25"/>
<text text-anchor="start" x="266.62" y="-180.45" font-family="Times,serif" font-size="14.00">Bucket 0: Profundidade = 1</text>
<polygon fill="none" stroke="black" points="156,-151.75 156,-174.25 196.5,-174.25 196.5,-151.75 156,-151.75"/>
<text text-anchor="start" x="159" y="-157.95" font-family="Times,serif" font-size="14.00">Chave</text>
<polygon fill="none" stroke="black" points="196.5,-151.75 196.5,-174.25 528.75,-174.25 528.75,-151.75 196.5,-151.75"/>
<text text-anchor="start" x="336.38" y="-157.95" font-family="Times,serif" font-size="14.00">Elemento</text>
<polygon fill="none" stroke="black" points="156,-129.25 156,-151.75 196.5,-151.75 196.5,-129.25 156,-129.25"/>
<text text-anchor="start" x="172.88" y="-135.45" font-family="Times,serif" font-size="14.00">1</text>
<polygon fill="none" stroke="black" points="196.5,-129.25 196.5,-151.75 528.75,-151.75 528.75,-129.25 196.5,-129.25"/>
<text text-anchor="start" x="199.5" y="-135.45" font-family="Times,serif" font-size="14.00">Algoritmos e Programação: Estruturas Avançadas de Dados</text>
<polygon fill="none" stroke="black" points="156,-106.75 156,-129.25 196.5,-129.25 196.5,-106.75 156,-106.75"/>
<text text-anchor="start" x="172.88" y="-112.95" font-family="Times,serif" font-size="14.00">3</text>
<polygon fill="none" stroke="black" points="196.5,-106.75 196.5,-129.25 528.75,-129.25 528.75,-106.75 196.5,-106.75"/>
<text text-anchor="start" x="234.75" y="-112.95" font-family="Times,serif" font-size="14.00">Engenharia de Software: Arquitetura e Padrões</text>
<polygon fill="none" stroke="black" points="155,-105.75 155,-197.75 529.75,-197.75 529.75,-105.75 155,-105.75"/>
</g>
<!-- diretorio&#45;&gt;bucket0 -->
<g id="edge1" class="edge">
<title>diretorio:diretorio0&#45;&gt;bucket0</title>
<path fill="none" stroke="black" d="M103,-107.75C113.81,-107.75 124.85,-108.19 135.97,-108.99"/>
<polygon fill="black" stroke="black" points="135.34,-112.45 145.59,-109.78 135.91,-105.47 135.34,-112.45"/>
</g>
<!-- bucket1 -->
<g id="node3" class="node">
<title>bucket1</title>
<polygon fill="none" stroke="black" points="185.62,-56 185.62,-78.5 499.12,-78.5 499.12,-56 185.62,-56"/>
<text text-anchor="start" x="266.62" y="-62.2" font-family="Times,serif" font-size="14.00">Bucket 1: Profundidade = 1</text>
<polygon fill="none" stroke="black" points="185.62,-33.5 185.62,-56 226.12,-56 226.12,-33.5 185.62,-33.5"/>
<text text-anchor="start" x="188.62" y="-39.7" font-family="Times,serif" font-size="14.00">Chave</text>
<polygon fill="none" stroke="black" points="226.12,-33.5 226.12,-56 499.12,-56 499.12,-33.5 226.12,-33.5"/>
<text text-anchor="start" x="336.38" y="-39.7" font-family="Times,serif" font-size="14.00">Elemento</text>
<polygon fill="none" stroke="black" points="185.62,-11 185.62,-33.5 226.12,-33.5 226.12,-11 185.62,-11"/>
<text text-anchor="start" x="202.5" y="-17.2" font-family="Times,serif" font-size="14.00">2</text>
<polygon fill="none" stroke="black" points="226.12,-11 226.12,-33.5 499.12,-33.5 499.12,-11 226.12,-11"/>
<text text-anchor="start" x="229.12" y="-17.2" font-family="Times,serif" font-size="14.00">Sistemas de Gerenciamento de Bancos de Dados</text>
<polygon fill="none" stroke="black" points="185.62,-5 185.62,-11 226.12,-11 226.12,-5 185.62,-5"/>
<polygon fill="none" stroke="black" points="226.12,-5 226.12,-11 499.12,-11 499.12,-5 226.12,-5"/>
<polygon fill="none" stroke="black" points="184.62,-4 184.62,-79.5 500.12,-79.5 500.12,-4 184.62,-4"/>
</g>
<!-- diretorio&#45;&gt;bucket1 -->
<g id="edge2" class="edge">
<title>diretorio:diretorio1&#45;&gt;bucket1</title>
<path fill="none" stroke="black" d="M103,-85.25C123.33,-85.25 144.47,-83.7 165.4,-81.19"/>
<polygon fill="black" stroke="black" points="165.68,-84.68 175.16,-79.93 164.79,-77.74 165.68,-84.68"/>
</g>
</g>
</svg>
