<?xml version="1.0" encoding="UTF-8" standalone="no"?>
<!DOCTYPE svg PUBLIC "-//W3C//DTD SVG 1.1//EN"
 "http://www.w3.org/Graphics/SVG/1.1/DTD/svg11.dtd">
<!-- Generated by graphviz version 12.2.1 (0)
 -->
<!-- Title: HashTable Pages: 1 -->
<svg width="373pt" height="396pt"
 viewBox="0.00 0.00 373.25 396.25" xmlns="http://www.w3.org/2000/svg" xmlns:xlink="http://www.w3.org/1999/xlink">
<g id="graph0" class="graph" transform="scale(1 1) rotate(0) translate(4 392.25)">
<title>HashTable</title>
<polygon fill="white" stroke="none" points="-4,4 -4,-392.25 369.25,-392.25 369.25,4 -4,4"/>
<!-- diretorio -->
<g id="node1" class="node">
<title>diretorio</title>
<polygon fill="none" stroke="black" points="9,-227.25 9,-249.75 102,-249.75 102,-227.25 9,-227.25"/>
<text text-anchor="start" x="12" y="-233.45" font-family="Times,serif" font-size="14.00">Profundidade: 3</text>
<polygon fill="none" stroke="black" points="9,-204.75 9,-227.25 102,-227.25 102,-204.75 9,-204.75"/>
<text text-anchor="start" x="45.38" y="-210.95" font-family="Times,serif" font-size="14.00">000</text>
<polygon fill="none" stroke="black" points="9,-182.25 9,-204.75 102,-204.75 102,-182.25 9,-182.25"/>
<text text-anchor="start" x="45.38" y="-188.45" font-family="Times,serif" font-size="14.00">001</text>
<polygon fill="none" stroke="black" points="9,-159.75 9,-182.25 102,-182.25 102,-159.75 9,-159.75"/>
<text text-anchor="start" x="45.38" y="-165.95" font-family="Times,serif" font-size="14.00">010</text>
<polygon fill="none" stroke="black" points="9,-137.25 9,-159.75 102,-159.75 102,-137.25 9,-137.25"/>
<text text-anchor="start" x="45.38" y="-143.45" font-family="Times,serif" font-size="14.00">011</text>
<polygon fill="none" stroke="black" points="9,-114.75 9,-137.25 102,-137.25 102,-114.75 9,-114.75"/>
<text text-anchor="start" x="45.38" y="-120.95" font-family="Times,serif" font-size="14.00">100</text>
<polygon fill="none" stroke="black" points="9,-92.25 9,-114.75 102,-114.75 102,-92.25 9,-92.25"/>
<text text-anchor="start" x="45.38" y="-98.45" font-family="Times,serif" font-size="14.00">101</text>
<polygon fill="none" stroke="black" points="9,-69.75 9,-92.25 102,-92.25 102,-69.75 9,-69.75"/>
<text text-anchor="start" x="45.38" y="-75.95" font-family="Times,serif" font-size="14.00">110</text>
<polygon fill="none" stroke="black" points="9,-47.25 9,-69.75 102,-69.75 102,-47.25 9,-47.25"/>
<text text-anchor="start" x="45.38" y="-53.45" font-family="Times,serif" font-size="14.00">111</text>
<polygon fill="none" stroke="black" points="8,-46.25 8,-250.75 103,-250.75 103,-46.25 8,-46.25"/>
</g>
<!-- bucket0 -->
<g id="node2" class="node">
<title>bucket0</title>
<polygon fill="none" stroke="black" points="156,-360.75 156,-383.25 356.25,-383.25 356.25,-360.75 156,-360.75"/>
<text text-anchor="start" x="180.38" y="-366.95" font-family="Times,serif" font-size="14.00">Bucket 0: Profundidade = 3</text>
<polygon fill="none" stroke="black" points="156,-338.25 156,-360.75 238.5,-360.75 238.5,-338.25 156,-338.25"/>
<text text-anchor="start" x="180" y="-344.45" font-family="Times,serif" font-size="14.00">Chave</text>
<polygon fill="none" stroke="black" points="238.5,-338.25 238.5,-360.75 356.25,-360.75 356.25,-338.25 238.5,-338.25"/>
<text text-anchor="start" x="271.12" y="-344.45" font-family="Times,serif" font-size="14.00">Elemento</text>
<polygon fill="none" stroke="black" points="156,-315.75 156,-338.25 238.5,-338.25 238.5,-315.75 156,-315.75"/>
<text text-anchor="start" x="159" y="-321.95" font-family="Times,serif" font-size="14.00">Yurie Kokubu</text>
<polygon fill="none" stroke="black" points="238.5,-315.75 238.5,-338.25 356.25,-338.25 356.25,-315.75 238.5,-315.75"/>
<text text-anchor="start" x="241.5" y="-321.95" font-family="Times,serif" font-size="14.00">I wanna be with you</text>
<polygon fill="none" stroke="black" points="156,-309.75 156,-315.75 238.5,-315.75 238.5,-309.75 156,-309.75"/>
<polygon fill="none" stroke="black" points="238.5,-309.75 238.5,-315.75 356.25,-315.75 356.25,-309.75 238.5,-309.75"/>
<polygon fill="none" stroke="black" points="155,-308.75 155,-384.25 357.25,-384.25 357.25,-308.75 155,-308.75"/>
</g>
<!-- diretorio&#45;&gt;bucket0 -->
<g id="edge1" class="edge">
<title>diretorio:diretorio0&#45;&gt;bucket0</title>
<path fill="none" stroke="black" d="M103,-216C143.38,-216 117.53,-267.88 147,-295.5 147.76,-296.21 148.54,-296.92 149.32,-297.62"/>
<polygon fill="black" stroke="black" points="146.98,-300.22 156.94,-303.82 151.39,-294.79 146.98,-300.22"/>
</g>
<!-- bucket1 -->
<g id="node3" class="node">
<title>bucket1</title>
<polygon fill="none" stroke="black" points="161.25,-140.75 161.25,-163.25 351,-163.25 351,-140.75 161.25,-140.75"/>
<text text-anchor="start" x="180.38" y="-146.95" font-family="Times,serif" font-size="14.00">Bucket 1: Profundidade = 1</text>
<polygon fill="none" stroke="black" points="161.25,-118.25 161.25,-140.75 201.75,-140.75 201.75,-118.25 161.25,-118.25"/>
<text text-anchor="start" x="164.25" y="-124.45" font-family="Times,serif" font-size="14.00">Chave</text>
<polygon fill="none" stroke="black" points="201.75,-118.25 201.75,-140.75 351,-140.75 351,-118.25 201.75,-118.25"/>
<text text-anchor="start" x="250.12" y="-124.45" font-family="Times,serif" font-size="14.00">Elemento</text>
<polygon fill="none" stroke="black" points="161.25,-95.75 161.25,-118.25 201.75,-118.25 201.75,-95.75 161.25,-95.75"/>
<text text-anchor="start" x="169.12" y="-101.95" font-family="Times,serif" font-size="14.00">Anri</text>
<polygon fill="none" stroke="black" points="201.75,-95.75 201.75,-118.25 351,-118.25 351,-95.75 201.75,-95.75"/>
<text text-anchor="start" x="204.75" y="-101.95" font-family="Times,serif" font-size="14.00">Remember Summer Days</text>
<polygon fill="none" stroke="black" points="161.25,-89.75 161.25,-95.75 201.75,-95.75 201.75,-89.75 161.25,-89.75"/>
<polygon fill="none" stroke="black" points="201.75,-89.75 201.75,-95.75 351,-95.75 351,-89.75 201.75,-89.75"/>
<polygon fill="none" stroke="black" points="160.25,-88.75 160.25,-164.25 352,-164.25 352,-88.75 160.25,-88.75"/>
</g>
<!-- diretorio&#45;&gt;bucket1 -->
<g id="edge2" class="edge">
<title>diretorio:diretorio1&#45;&gt;bucket1</title>
<path fill="none" stroke="black" d="M103,-193.5C106.42,-193.5 128.2,-184.3 154.27,-172.71"/>
<polygon fill="black" stroke="black" points="155.35,-176.06 163.05,-168.79 152.49,-169.67 155.35,-176.06"/>
</g>
<!-- diretorio&#45;&gt;bucket1 -->
<g id="edge4" class="edge">
<title>diretorio:diretorio3&#45;&gt;bucket1</title>
<path fill="none" stroke="black" d="M103,-148.5C115.38,-148.5 128.28,-147.78 141.09,-146.59"/>
<polygon fill="black" stroke="black" points="141.21,-150.1 150.8,-145.6 140.5,-143.14 141.21,-150.1"/>
</g>
<!-- diretorio&#45;&gt;bucket1 -->
<g id="edge6" class="edge">
<title>diretorio:diretorio5&#45;&gt;bucket1</title>
<path fill="none" stroke="black" d="M103,-103.5C115.4,-103.5 128.3,-104.26 141.11,-105.49"/>
<polygon fill="black" stroke="black" points="140.51,-108.95 150.83,-106.54 141.26,-101.99 140.51,-108.95"/>
</g>
<!-- diretorio&#45;&gt;bucket1 -->
<g id="edge8" class="edge">
<title>diretorio:diretorio7&#45;&gt;bucket1</title>
<path fill="none" stroke="black" d="M103,-58.5C104.74,-58.5 126.66,-68.1 153.34,-80.09"/>
<polygon fill="black" stroke="black" points="151.83,-83.25 162.39,-84.17 154.71,-76.87 151.83,-83.25"/>
</g>
<!-- bucket2 -->
<g id="node4" class="node">
<title>bucket2</title>
<polygon fill="none" stroke="black" points="177.38,-39.5 177.38,-62 334.88,-62 334.88,-39.5 177.38,-39.5"/>
<text text-anchor="start" x="180.38" y="-45.7" font-family="Times,serif" font-size="14.00">Bucket 2: Profundidade = 2</text>
<polygon fill="none" stroke="black" points="177.38,-17 177.38,-39.5 247.12,-39.5 247.12,-17 177.38,-17"/>
<text text-anchor="start" x="195" y="-23.2" font-family="Times,serif" font-size="14.00">Chave</text>
<polygon fill="none" stroke="black" points="247.12,-17 247.12,-39.5 334.88,-39.5 334.88,-17 247.12,-17"/>
<text text-anchor="start" x="264.75" y="-23.2" font-family="Times,serif" font-size="14.00">Elemento</text>
<polygon fill="none" stroke="black" points="177.38,-11 177.38,-17 247.12,-17 247.12,-11 177.38,-11"/>
<polygon fill="none" stroke="black" points="247.12,-11 247.12,-17 334.88,-17 334.88,-11 247.12,-11"/>
<polygon fill="none" stroke="black" points="177.38,-5 177.38,-11 247.12,-11 247.12,-5 177.38,-5"/>
<polygon fill="none" stroke="black" points="247.12,-5 247.12,-11 334.88,-11 334.88,-5 247.12,-5"/>
<polygon fill="none" stroke="black" points="176.38,-4 176.38,-63 335.88,-63 335.88,-4 176.38,-4"/>
</g>
<!-- diretorio&#45;&gt;bucket2 -->
<g id="edge3" class="edge">
<title>diretorio:diretorio2&#45;&gt;bucket2</title>
<path fill="none" stroke="black" d="M103,-171C149.73,-171 112.96,-107.52 147,-75.5 150.69,-72.03 154.7,-68.84 158.92,-65.9"/>
<polygon fill="black" stroke="black" points="160.62,-68.97 167.21,-60.67 156.89,-63.05 160.62,-68.97"/>
</g>
<!-- diretorio&#45;&gt;bucket2 -->
<g id="edge7" class="edge">
<title>diretorio:diretorio6&#45;&gt;bucket2</title>
<path fill="none" stroke="black" d="M103,-81C114.76,-81 135.5,-75.76 157.94,-68.76"/>
<polygon fill="black" stroke="black" points="158.81,-72.16 167.26,-65.78 156.67,-65.49 158.81,-72.16"/>
</g>
<!-- bucket3 -->
<g id="node5" class="node">
<title>bucket3</title>
<polygon fill="none" stroke="black" points="156,-259 156,-281.5 356.25,-281.5 356.25,-259 156,-259"/>
<text text-anchor="start" x="180.38" y="-265.2" font-family="Times,serif" font-size="14.00">Bucket 3: Profundidade = 3</text>
<polygon fill="none" stroke="black" points="156,-236.5 156,-259 238.5,-259 238.5,-236.5 156,-236.5"/>
<text text-anchor="start" x="180" y="-242.7" font-family="Times,serif" font-size="14.00">Chave</text>
<polygon fill="none" stroke="black" points="238.5,-236.5 238.5,-259 356.25,-259 356.25,-236.5 238.5,-236.5"/>
<text text-anchor="start" x="271.12" y="-242.7" font-family="Times,serif" font-size="14.00">Elemento</text>
<polygon fill="none" stroke="black" points="156,-214 156,-236.5 238.5,-236.5 238.5,-214 156,-214"/>
<text text-anchor="start" x="159" y="-220.2" font-family="Times,serif" font-size="14.00">Tomoko Aran</text>
<polygon fill="none" stroke="black" points="238.5,-214 238.5,-236.5 356.25,-236.5 356.25,-214 238.5,-214"/>
<text text-anchor="start" x="241.5" y="-220.2" font-family="Times,serif" font-size="14.00">Midnight Pretenders</text>
<polygon fill="none" stroke="black" points="156,-191.5 156,-214 238.5,-214 238.5,-191.5 156,-191.5"/>
<text text-anchor="start" x="180.75" y="-197.7" font-family="Times,serif" font-size="14.00">Cindy</text>
<polygon fill="none" stroke="black" points="238.5,-191.5 238.5,-214 356.25,-214 356.25,-191.5 238.5,-191.5"/>
<text text-anchor="start" x="276.38" y="-197.7" font-family="Times,serif" font-size="14.00">Destiny</text>
<polygon fill="none" stroke="black" points="155,-190.5 155,-282.5 357.25,-282.5 357.25,-190.5 155,-190.5"/>
</g>
<!-- diretorio&#45;&gt;bucket3 -->
<g id="edge5" class="edge">
<title>diretorio:diretorio4&#45;&gt;bucket3</title>
<path fill="none" stroke="black" d="M103,-126C133.11,-126 123.62,-158.53 147,-177.5 147.95,-178.27 148.92,-179.04 149.9,-179.81"/>
<polygon fill="black" stroke="black" points="147.63,-182.48 157.74,-185.64 151.8,-176.86 147.63,-182.48"/>
</g>
</g>
</svg>
