<?xml version="1.0" encoding="UTF-8" standalone="no"?>
<!DOCTYPE svg PUBLIC "-//W3C//DTD SVG 1.1//EN"
 "http://www.w3.org/Graphics/SVG/1.1/DTD/svg11.dtd">
<!-- Generated by graphviz version 12.2.1 (0)
 -->
<!-- Title: HashTable Pages: 1 -->
<svg width="331pt" height="226pt"
 viewBox="0.00 0.00 330.50 226.00" xmlns="http://www.w3.org/2000/svg" xmlns:xlink="http://www.w3.org/1999/xlink">
<g id="graph0" class="graph" transform="scale(1 1) rotate(0) translate(4 222)">
<title>HashTable</title>
<polygon fill="white" stroke="none" points="-4,4 -4,-222 326.5,-222 326.5,4 -4,4"/>
<!-- diretorio -->
<g id="node1" class="node">
<title>diretorio</title>
<polygon fill="none" stroke="black" points="9,-131.25 9,-153.75 102,-153.75 102,-131.25 9,-131.25"/>
<text text-anchor="start" x="12" y="-137.45" font-family="Times,serif" font-size="14.00">Profundidade: 1</text>
<polygon fill="none" stroke="black" points="9,-108.75 9,-131.25 102,-131.25 102,-108.75 9,-108.75"/>
<text text-anchor="start" x="52.12" y="-114.95" font-family="Times,serif" font-size="14.00">0</text>
<polygon fill="none" stroke="black" points="9,-86.25 9,-108.75 102,-108.75 102,-86.25 9,-86.25"/>
<text text-anchor="start" x="52.12" y="-92.45" font-family="Times,serif" font-size="14.00">1</text>
<polygon fill="none" stroke="black" points="8,-85.25 8,-154.75 103,-154.75 103,-85.25 8,-85.25"/>
</g>
<!-- bucket0 -->
<g id="node2" class="node">
<title>bucket0</title>
<polygon fill="none" stroke="black" points="156,-190.5 156,-213 313.5,-213 313.5,-190.5 156,-190.5"/>
<text text-anchor="start" x="159" y="-196.7" font-family="Times,serif" font-size="14.00">Bucket 0: Profundidade = 1</text>
<polygon fill="none" stroke="black" points="156,-168 156,-190.5 225.75,-190.5 225.75,-168 156,-168"/>
<text text-anchor="start" x="173.62" y="-174.2" font-family="Times,serif" font-size="14.00">Chave</text>
<polygon fill="none" stroke="black" points="225.75,-168 225.75,-190.5 313.5,-190.5 313.5,-168 225.75,-168"/>
<text text-anchor="start" x="243.38" y="-174.2" font-family="Times,serif" font-size="14.00">Elemento</text>
<polygon fill="none" stroke="black" points="156,-145.5 156,-168 225.75,-168 225.75,-145.5 156,-145.5"/>
<text text-anchor="start" x="187.5" y="-151.7" font-family="Times,serif" font-size="14.00">1</text>
<polygon fill="none" stroke="black" points="225.75,-145.5 225.75,-168 313.5,-168 313.5,-145.5 225.75,-145.5"/>
<text text-anchor="start" x="250.12" y="-151.7" font-family="Times,serif" font-size="14.00">Frieren</text>
<polygon fill="none" stroke="black" points="156,-123 156,-145.5 225.75,-145.5 225.75,-123 156,-123"/>
<text text-anchor="start" x="187.5" y="-129.2" font-family="Times,serif" font-size="14.00">3</text>
<polygon fill="none" stroke="black" points="225.75,-123 225.75,-145.5 313.5,-145.5 313.5,-123 225.75,-123"/>
<text text-anchor="start" x="255.38" y="-129.2" font-family="Times,serif" font-size="14.00">Stark</text>
<polygon fill="none" stroke="black" points="155,-122 155,-214 314.5,-214 314.5,-122 155,-122"/>
</g>
<!-- diretorio&#45;&gt;bucket0 -->
<g id="edge1" class="edge">
<title>diretorio:diretorio0&#45;&gt;bucket0</title>
<path fill="none" stroke="black" d="M103,-120C113.97,-120 125.16,-121.51 136.15,-123.99"/>
<polygon fill="black" stroke="black" points="135.03,-127.32 145.59,-126.4 136.76,-120.53 135.03,-127.32"/>
</g>
<!-- bucket1 -->
<g id="node3" class="node">
<title>bucket1</title>
<polygon fill="none" stroke="black" points="156,-72.5 156,-95 313.5,-95 313.5,-72.5 156,-72.5"/>
<text text-anchor="start" x="159" y="-78.7" font-family="Times,serif" font-size="14.00">Bucket 1: Profundidade = 1</text>
<polygon fill="none" stroke="black" points="156,-50 156,-72.5 225.75,-72.5 225.75,-50 156,-50"/>
<text text-anchor="start" x="173.62" y="-56.2" font-family="Times,serif" font-size="14.00">Chave</text>
<polygon fill="none" stroke="black" points="225.75,-50 225.75,-72.5 313.5,-72.5 313.5,-50 225.75,-50"/>
<text text-anchor="start" x="243.38" y="-56.2" font-family="Times,serif" font-size="14.00">Elemento</text>
<polygon fill="none" stroke="black" points="156,-27.5 156,-50 225.75,-50 225.75,-27.5 156,-27.5"/>
<text text-anchor="start" x="187.5" y="-33.7" font-family="Times,serif" font-size="14.00">2</text>
<polygon fill="none" stroke="black" points="225.75,-27.5 225.75,-50 313.5,-50 313.5,-27.5 225.75,-27.5"/>
<text text-anchor="start" x="257.25" y="-33.7" font-family="Times,serif" font-size="14.00">Fern</text>
<polygon fill="none" stroke="black" points="156,-5 156,-27.5 225.75,-27.5 225.75,-5 156,-5"/>
<text text-anchor="start" x="187.5" y="-11.2" font-family="Times,serif" font-size="14.00">4</text>
<polygon fill="none" stroke="black" points="225.75,-5 225.75,-27.5 313.5,-27.5 313.5,-5 225.75,-5"/>
<text text-anchor="start" x="246.75" y="-11.2" font-family="Times,serif" font-size="14.00">Himmel</text>
<polygon fill="none" stroke="black" points="155,-4 155,-96 314.5,-96 314.5,-4 155,-4"/>
</g>
<!-- diretorio&#45;&gt;bucket1 -->
<g id="edge2" class="edge">
<title>diretorio:diretorio1&#45;&gt;bucket1</title>
<path fill="none" stroke="black" d="M103,-97.5C113.96,-97.5 125.14,-96.01 136.12,-93.55"/>
<polygon fill="black" stroke="black" points="136.72,-97.01 145.55,-91.17 135,-90.23 136.72,-97.01"/>
</g>
</g>
</svg>
