<?xml version="1.0" encoding="UTF-8" standalone="no"?>
<!DOCTYPE svg PUBLIC "-//W3C//DTD SVG 1.1//EN"
 "http://www.w3.org/Graphics/SVG/1.1/DTD/svg11.dtd">
<!-- Generated by graphviz version 12.2.1 (0)
 -->
<!-- Title: HashTable Pages: 1 -->
<svg width="331pt" height="176pt"
 viewBox="0.00 0.00 330.50 175.50" xmlns="http://www.w3.org/2000/svg" xmlns:xlink="http://www.w3.org/1999/xlink">
<g id="graph0" class="graph" transform="scale(1 1) rotate(0) translate(4 171.5)">
<title>HashTable</title>
<polygon fill="white" stroke="none" points="-4,4 -4,-171.5 326.5,-171.5 326.5,4 -4,4"/>
<!-- diretorio -->
<g id="node1" class="node">
<title>diretorio</title>
<polygon fill="none" stroke="black" points="9,-94.75 9,-117.25 102,-117.25 102,-94.75 9,-94.75"/>
<text text-anchor="start" x="12" y="-100.95" font-family="Times,serif" font-size="14.00">Profundidade: 0</text>
<polygon fill="none" stroke="black" points="9,-72.25 9,-94.75 102,-94.75 102,-72.25 9,-72.25"/>
<text text-anchor="start" x="52.12" y="-78.45" font-family="Times,serif" font-size="14.00">0</text>
<polygon fill="none" stroke="black" points="8,-71.25 8,-118.25 103,-118.25 103,-71.25 8,-71.25"/>
</g>
<!-- bucket0 -->
<g id="node2" class="node">
<title>bucket0</title>
<polygon fill="none" stroke="black" points="156,-140 156,-162.5 313.5,-162.5 313.5,-140 156,-140"/>
<text text-anchor="start" x="159" y="-146.2" font-family="Times,serif" font-size="14.00">Bucket 0: Profundidade = 0</text>
<polygon fill="none" stroke="black" points="156,-117.5 156,-140 225.75,-140 225.75,-117.5 156,-117.5"/>
<text text-anchor="start" x="173.62" y="-123.7" font-family="Times,serif" font-size="14.00">Chave</text>
<polygon fill="none" stroke="black" points="225.75,-117.5 225.75,-140 313.5,-140 313.5,-117.5 225.75,-117.5"/>
<text text-anchor="start" x="243.38" y="-123.7" font-family="Times,serif" font-size="14.00">Elemento</text>
<polygon fill="none" stroke="black" points="156,-95 156,-117.5 225.75,-117.5 225.75,-95 156,-95"/>
<text text-anchor="start" x="184.12" y="-101.2" font-family="Times,serif" font-size="14.00">54</text>
<polygon fill="none" stroke="black" points="225.75,-95 225.75,-117.5 313.5,-117.5 313.5,-95 225.75,-95"/>
<text text-anchor="start" x="250.5" y="-101.2" font-family="Times,serif" font-size="14.00">Giorno</text>
<polygon fill="none" stroke="black" points="156,-72.5 156,-95 225.75,-95 225.75,-72.5 156,-72.5"/>
<text text-anchor="start" x="184.12" y="-78.7" font-family="Times,serif" font-size="14.00">99</text>
<polygon fill="none" stroke="black" points="225.75,-72.5 225.75,-95 313.5,-95 313.5,-72.5 225.75,-72.5"/>
<text text-anchor="start" x="253.12" y="-78.7" font-family="Times,serif" font-size="14.00">Jotaro</text>
<polygon fill="none" stroke="black" points="156,-50 156,-72.5 225.75,-72.5 225.75,-50 156,-50"/>
<text text-anchor="start" x="187.5" y="-56.2" font-family="Times,serif" font-size="14.00">2</text>
<polygon fill="none" stroke="black" points="225.75,-50 225.75,-72.5 313.5,-72.5 313.5,-50 225.75,-50"/>
<text text-anchor="start" x="252" y="-56.2" font-family="Times,serif" font-size="14.00">Jolyne</text>
<polygon fill="none" stroke="black" points="156,-27.5 156,-50 225.75,-50 225.75,-27.5 156,-27.5"/>
<text text-anchor="start" x="184.12" y="-33.7" font-family="Times,serif" font-size="14.00">55</text>
<polygon fill="none" stroke="black" points="225.75,-27.5 225.75,-50 313.5,-50 313.5,-27.5 225.75,-27.5"/>
<text text-anchor="start" x="250.12" y="-33.7" font-family="Times,serif" font-size="14.00">Johnny</text>
<polygon fill="none" stroke="black" points="156,-5 156,-27.5 225.75,-27.5 225.75,-5 156,-5"/>
<text text-anchor="start" x="187.5" y="-11.2" font-family="Times,serif" font-size="14.00">1</text>
<polygon fill="none" stroke="black" points="225.75,-5 225.75,-27.5 313.5,-27.5 313.5,-5 225.75,-5"/>
<text text-anchor="start" x="251.25" y="-11.2" font-family="Times,serif" font-size="14.00">Joseph</text>
<polygon fill="none" stroke="black" points="155,-4 155,-163.5 314.5,-163.5 314.5,-4 155,-4"/>
</g>
<!-- diretorio&#45;&gt;bucket0 -->
<g id="edge1" class="edge">
<title>diretorio:diretorio0&#45;&gt;bucket0</title>
<path fill="none" stroke="black" d="M103,-83.5C113.61,-83.5 124.71,-83.51 135.76,-83.52"/>
<polygon fill="black" stroke="black" points="135.72,-87.02 145.73,-83.54 135.73,-80.02 135.72,-87.02"/>
</g>
</g>
</svg>
