<?xml version="1.0" encoding="UTF-8" standalone="no"?>
<!DOCTYPE svg PUBLIC "-//W3C//DTD SVG 1.1//EN"
 "http://www.w3.org/Graphics/SVG/1.1/DTD/svg11.dtd">
<!-- Generated by graphviz version 12.2.1 (0)
 -->
<!-- Title: HashTable Pages: 1 -->
<svg width="331pt" height="344pt"
 viewBox="0.00 0.00 330.50 344.00" xmlns="http://www.w3.org/2000/svg" xmlns:xlink="http://www.w3.org/1999/xlink">
<g id="graph0" class="graph" transform="scale(1 1) rotate(0) translate(4 340)">
<title>HashTable</title>
<polygon fill="white" stroke="none" points="-4,4 -4,-340 326.5,-340 326.5,4 -4,4"/>
<!-- diretorio -->
<g id="node1" class="node">
<title>diretorio</title>
<polygon fill="none" stroke="black" points="9,-223.75 9,-246.25 102,-246.25 102,-223.75 9,-223.75"/>
<text text-anchor="start" x="12" y="-229.95" font-family="Times,serif" font-size="14.00">Profundidade: 2</text>
<polygon fill="none" stroke="black" points="9,-201.25 9,-223.75 102,-223.75 102,-201.25 9,-201.25"/>
<text text-anchor="start" x="48.75" y="-207.45" font-family="Times,serif" font-size="14.00">00</text>
<polygon fill="none" stroke="black" points="9,-178.75 9,-201.25 102,-201.25 102,-178.75 9,-178.75"/>
<text text-anchor="start" x="48.75" y="-184.95" font-family="Times,serif" font-size="14.00">01</text>
<polygon fill="none" stroke="black" points="9,-156.25 9,-178.75 102,-178.75 102,-156.25 9,-156.25"/>
<text text-anchor="start" x="48.75" y="-162.45" font-family="Times,serif" font-size="14.00">10</text>
<polygon fill="none" stroke="black" points="9,-133.75 9,-156.25 102,-156.25 102,-133.75 9,-133.75"/>
<text text-anchor="start" x="48.75" y="-139.95" font-family="Times,serif" font-size="14.00">11</text>
<polygon fill="none" stroke="black" points="8,-132.75 8,-247.25 103,-247.25 103,-132.75 8,-132.75"/>
</g>
<!-- bucket0 -->
<g id="node2" class="node">
<title>bucket0</title>
<polygon fill="none" stroke="black" points="156,-308.5 156,-331 313.5,-331 313.5,-308.5 156,-308.5"/>
<text text-anchor="start" x="159" y="-314.7" font-family="Times,serif" font-size="14.00">Bucket 0: Profundidade = 2</text>
<polygon fill="none" stroke="black" points="156,-286 156,-308.5 251.62,-308.5 251.62,-286 156,-286"/>
<text text-anchor="start" x="186.56" y="-292.2" font-family="Times,serif" font-size="14.00">Chave</text>
<polygon fill="none" stroke="black" points="251.62,-286 251.62,-308.5 313.5,-308.5 313.5,-286 251.62,-286"/>
<text text-anchor="start" x="256.31" y="-292.2" font-family="Times,serif" font-size="14.00">Elemento</text>
<polygon fill="none" stroke="black" points="156,-263.5 156,-286 251.62,-286 251.62,-263.5 156,-263.5"/>
<text text-anchor="start" x="160.69" y="-269.7" font-family="Times,serif" font-size="14.00">513.696.110&#45;48</text>
<polygon fill="none" stroke="black" points="251.62,-263.5 251.62,-286 313.5,-286 313.5,-263.5 251.62,-263.5"/>
<text text-anchor="start" x="266.06" y="-269.7" font-family="Times,serif" font-size="14.00">Maria</text>
<polygon fill="none" stroke="black" points="156,-241 156,-263.5 251.62,-263.5 251.62,-241 156,-241"/>
<text text-anchor="start" x="160.69" y="-247.2" font-family="Times,serif" font-size="14.00">411.081.000&#45;07</text>
<polygon fill="none" stroke="black" points="251.62,-241 251.62,-263.5 313.5,-263.5 313.5,-241 251.62,-241"/>
<text text-anchor="start" x="266.44" y="-247.2" font-family="Times,serif" font-size="14.00">Lucas</text>
<polygon fill="none" stroke="black" points="155,-240 155,-332 314.5,-332 314.5,-240 155,-240"/>
</g>
<!-- diretorio&#45;&gt;bucket0 -->
<g id="edge1" class="edge">
<title>diretorio:diretorio0&#45;&gt;bucket0</title>
<path fill="none" stroke="black" d="M103,-212.5C113.75,-212.5 131.18,-220.15 149.86,-230.52"/>
<polygon fill="black" stroke="black" points="147.98,-233.47 158.39,-235.41 151.45,-227.4 147.98,-233.47"/>
</g>
<!-- bucket1 -->
<g id="node3" class="node">
<title>bucket1</title>
<polygon fill="none" stroke="black" points="156,-190.5 156,-213 313.5,-213 313.5,-190.5 156,-190.5"/>
<text text-anchor="start" x="159" y="-196.7" font-family="Times,serif" font-size="14.00">Bucket 1: Profundidade = 1</text>
<polygon fill="none" stroke="black" points="156,-168 156,-190.5 251.62,-190.5 251.62,-168 156,-168"/>
<text text-anchor="start" x="186.56" y="-174.2" font-family="Times,serif" font-size="14.00">Chave</text>
<polygon fill="none" stroke="black" points="251.62,-168 251.62,-190.5 313.5,-190.5 313.5,-168 251.62,-168"/>
<text text-anchor="start" x="256.31" y="-174.2" font-family="Times,serif" font-size="14.00">Elemento</text>
<polygon fill="none" stroke="black" points="156,-145.5 156,-168 251.62,-168 251.62,-145.5 156,-145.5"/>
<text text-anchor="start" x="160.69" y="-151.7" font-family="Times,serif" font-size="14.00">262.450.810&#45;41</text>
<polygon fill="none" stroke="black" points="251.62,-145.5 251.62,-168 313.5,-168 313.5,-145.5 251.62,-145.5"/>
<text text-anchor="start" x="267.19" y="-151.7" font-family="Times,serif" font-size="14.00">Paulo</text>
<polygon fill="none" stroke="black" points="156,-123 156,-145.5 251.62,-145.5 251.62,-123 156,-123"/>
<text text-anchor="start" x="160.69" y="-129.2" font-family="Times,serif" font-size="14.00">041.237.540&#45;07</text>
<polygon fill="none" stroke="black" points="251.62,-123 251.62,-145.5 313.5,-145.5 313.5,-123 251.62,-123"/>
<text text-anchor="start" x="258.94" y="-129.2" font-family="Times,serif" font-size="14.00">Matheus</text>
<polygon fill="none" stroke="black" points="155,-122 155,-214 314.5,-214 314.5,-122 155,-122"/>
</g>
<!-- diretorio&#45;&gt;bucket1 -->
<g id="edge2" class="edge">
<title>diretorio:diretorio1&#45;&gt;bucket1</title>
<path fill="none" stroke="black" d="M103,-190C113.79,-190 125.01,-189.26 136.15,-188.06"/>
<polygon fill="black" stroke="black" points="136.23,-191.57 145.73,-186.89 135.38,-184.62 136.23,-191.57"/>
</g>
<!-- diretorio&#45;&gt;bucket1 -->
<g id="edge4" class="edge">
<title>diretorio:diretorio3&#45;&gt;bucket1</title>
<path fill="none" stroke="black" d="M103,-145C113.8,-145 125.03,-145.77 136.17,-147.03"/>
<polygon fill="black" stroke="black" points="135.4,-150.46 145.76,-148.25 136.29,-143.52 135.4,-150.46"/>
</g>
<!-- bucket2 -->
<g id="node4" class="node">
<title>bucket2</title>
<polygon fill="none" stroke="black" points="156,-72.5 156,-95 313.5,-95 313.5,-72.5 156,-72.5"/>
<text text-anchor="start" x="159" y="-78.7" font-family="Times,serif" font-size="14.00">Bucket 2: Profundidade = 2</text>
<polygon fill="none" stroke="black" points="156,-50 156,-72.5 251.62,-72.5 251.62,-50 156,-50"/>
<text text-anchor="start" x="186.56" y="-56.2" font-family="Times,serif" font-size="14.00">Chave</text>
<polygon fill="none" stroke="black" points="251.62,-50 251.62,-72.5 313.5,-72.5 313.5,-50 251.62,-50"/>
<text text-anchor="start" x="256.31" y="-56.2" font-family="Times,serif" font-size="14.00">Elemento</text>
<polygon fill="none" stroke="black" points="156,-27.5 156,-50 251.62,-50 251.62,-27.5 156,-27.5"/>
<text text-anchor="start" x="160.69" y="-33.7" font-family="Times,serif" font-size="14.00">072.664.620&#45;29</text>
<polygon fill="none" stroke="black" points="251.62,-27.5 251.62,-50 313.5,-50 313.5,-27.5 251.62,-27.5"/>
<text text-anchor="start" x="270.19" y="-33.7" font-family="Times,serif" font-size="14.00">João</text>
<polygon fill="none" stroke="black" points="156,-5 156,-27.5 251.62,-27.5 251.62,-5 156,-5"/>
<text text-anchor="start" x="160.69" y="-11.2" font-family="Times,serif" font-size="14.00">680.980.040&#45;90</text>
<polygon fill="none" stroke="black" points="251.62,-5 251.62,-27.5 313.5,-27.5 313.5,-5 251.62,-5"/>
<text text-anchor="start" x="270.94" y="-11.2" font-family="Times,serif" font-size="14.00">José</text>
<polygon fill="none" stroke="black" points="155,-4 155,-96 314.5,-96 314.5,-4 155,-4"/>
</g>
<!-- diretorio&#45;&gt;bucket2 -->
<g id="edge3" class="edge">
<title>diretorio:diretorio2&#45;&gt;bucket2</title>
<path fill="none" stroke="black" d="M103,-167.5C135.53,-167.5 123.45,-131.45 147,-109 147.62,-108.41 148.24,-107.82 148.87,-107.24"/>
<polygon fill="black" stroke="black" points="151.05,-109.99 156.23,-100.75 146.42,-104.74 151.05,-109.99"/>
</g>
</g>
</svg>
